<svg xmlns="http://www.w3.org/2000/svg" xmlns:xlink="http://www.w3.org/1999/xlink">
  <defs>
    <symbol viewBox="0 0 576 512" id="participant">
      <path
        d="M224 256A128 128 0 1 0 224 0a128 128 0 1 0 0 256zm-45.7 48C79.8 304 0 383.8 0 482.3C0 498.7 13.3 512 29.7 512H418.3c16.4 0 29.7-13.3 29.7-29.7C448 383.8 368.2 304 269.7 304H178.3z" />
    </symbol>
    <symbol viewBox="0 0 448 512" id="plus">
      <path fill="currentColor" d="M256 80c0-17.7-14.3-32-32-32s-32 14.3-32 32V224H48c-17.7 0-32 14.3-32 32s14.3 32 32 32H192V432c0 17.7 14.3 32 32 32s32-14.3 32-32V288H400c17.7 0 32-14.3 32-32s-14.3-32-32-32H256V80z"/>
    </symbol>
    <symbol viewBox="0 0 384 512" id="cross">
      <path fill="currentColor" d="M342.6 150.6c12.5-12.5 12.5-32.8 0-45.3s-32.8-12.5-45.3 0L192 210.7 86.6 105.4c-12.5-12.5-32.8-12.5-45.3 0s-12.5 32.8 0 45.3L146.7 256 41.4 361.4c-12.5 12.5-12.5 32.8 0 45.3s32.8 12.5 45.3 0L192 301.3 297.4 406.6c12.5 12.5 32.8 12.5 45.3 0s12.5-32.8 0-45.3L237.3 256 342.6 150.6z"/>
    </symbol>
    <symbol id="more">
      <path d="M14.5 31.91225C12.479075 31.91225 10.829675 33.50575 10.829675 35.456C10.829675 37.4065 12.479075 39 14.5 39C16.52095 39 18.170325 37.4065 18.170325 35.456C18.170325 33.5145 16.52095 31.91225 14.5 31.91225ZM3.6703 0C1.649375 0 0 1.59343 0 3.543875C0 5.4943 1.649375 7.08775 3.6703 7.08775C5.69125 7.08775 7.340625 5.4943 7.340625 3.543875C7.340625 1.59343 5.69125 0 3.6703 0ZM3.6703 10.640325C1.649375 10.640325 0 12.2338 0 14.184175C0 16.134675 1.649375 17.72805 3.6703 17.72805C5.69125 17.72805 7.340625 16.134675 7.340625 14.184175C7.340625 12.2338 5.69125 10.640325 3.6703 10.640325ZM3.6703 21.2806C1.649375 21.2806 0 22.8741 0 24.824475C0 26.775 1.649375 28.36825 3.6703 28.36825C5.69125 28.36825 7.340625 26.775 7.340625 24.824475C7.340625 22.8741 5.69125 21.2806 3.6703 21.2806ZM25.32975 7.09645C27.35075 7.09645 29 5.503 29 3.552575C29 1.602145 27.35075 0 25.32975 0C23.30875 0 21.659375 1.59343 21.659375 3.543875C21.659375 5.4943 23.30875 7.09645 25.32975 7.09645ZM14.5 21.2806C12.479075 21.2806 10.829675 22.8741 10.829675 24.824475C10.829675 26.775 12.479075 28.36825 14.5 28.36825C16.52095 28.36825 18.170325 26.775 18.170325 24.824475C18.170325 22.8741 16.52095 21.2806 14.5 21.2806ZM25.32975 21.2806C23.30875 21.2806 21.659375 22.8741 21.659375 24.824475C21.659375 26.775 23.30875 28.36825 25.32975 28.36825C27.35075 28.36825 29 26.775 29 24.824475C29 22.8741 27.35075 21.2806 25.32975 21.2806ZM25.32975 10.640325C23.30875 10.640325 21.659375 12.2338 21.659375 14.184175C21.659375 16.134675 23.30875 17.72805 25.32975 17.72805C27.35075 17.72805 29 16.134675 29 14.184175C29 12.2338 27.35075 10.640325 25.32975 10.640325ZM14.5 10.640325C12.479075 10.640325 10.829675 12.2338 10.829675 14.184175C10.829675 16.134675 12.479075 17.72805 14.5 17.72805C16.52095 17.72805 18.170325 16.134675 18.170325 14.184175C18.170325 12.2338 16.52095 10.640325 14.5 10.640325ZM14.5 0C12.479075 0 10.829675 1.59343 10.829675 3.543875C10.829675 5.4943 12.479075 7.08775 14.5 7.08775C16.52095 7.08775 18.170325 5.4943 18.170325 3.543875C18.170325 1.59343 16.52095 0 14.5 0Z" fill="white"></path>
    </symbol>
    <symbol id="star" viewBox="0 0 576 512">
      <path fill="currentColor" d="M316.9 18C311.6 7 300.4 0 288.1 0s-23.4 7-28.8 18L195 150.3 51.4 171.5c-12 1.8-22 10.2-25.7 21.7s-.7 24.2 7.9 32.7L137.8 329 113.2 474.7c-2 12 3 24.2 12.9 31.3s23 8 33.8 2.3l128.3-68.5 128.3 68.5c10.8 5.7 23.9 4.9 33.8-2.3s14.9-19.3 12.9-31.3L438.5 329 542.7 225.9c8.6-8.5 11.7-21.2 7.9-32.7s-13.7-19.9-25.7-21.7L381.2 150.3 316.9 18z"/>
    </symbol>
     <symbol id="society" viewBox="0 0 640 512">
      <path fill="currentColor" d="M144 0a80 80 0 1 1 0 160A80 80 0 1 1 144 0zM512 0a80 80 0 1 1 0 160A80 80 0 1 1 512 0zM0 298.7C0 239.8 47.8 192 106.7 192h42.7c15.9 0 31 3.5 44.6 9.7c-1.3 7.2-1.9 14.7-1.9 22.3c0 38.2 16.8 72.5 43.3 96c-.2 0-.4 0-.7 0H21.3C9.6 320 0 310.4 0 298.7zM405.3 320c-.2 0-.4 0-.7 0c26.6-23.5 43.3-57.8 43.3-96c0-7.6-.7-15-1.9-22.3c13.6-6.3 28.7-9.7 44.6-9.7h42.7C592.2 192 640 239.8 640 298.7c0 11.8-9.6 21.3-21.3 21.3H405.3zM224 224a96 96 0 1 1 192 0 96 96 0 1 1 -192 0zM128 485.3C128 411.7 187.7 352 261.3 352H378.7C452.3 352 512 411.7 512 485.3c0 14.7-11.9 26.7-26.7 26.7H154.7c-14.7 0-26.7-11.9-26.7-26.7z"/>
    </symbol>
    <symbol id="lightbulb" viewBox="0 0 384 512">
      <path fill="currentColor" d="M297.2 248.9C311.6 228.3 320 203.2 320 176c0-70.7-57.3-128-128-128S64 105.3 64 176c0 27.2 8.4 52.3 22.8 72.9c3.7 5.3 8.1 11.3 12.8 17.7l0 0c12.9 17.7 28.3 38.9 39.8 59.8c10.4 19 15.7 38.8 18.3 57.5H109c-2.2-12-5.9-23.7-11.8-34.5c-9.9-18-22.2-34.9-34.5-51.8l0 0 0 0c-5.2-7.1-10.4-14.2-15.4-21.4C27.6 247.9 16 213.3 16 176C16 78.8 94.8 0 192 0s176 78.8 176 176c0 37.3-11.6 71.9-31.4 100.3c-5 7.2-10.2 14.3-15.4 21.4l0 0 0 0c-12.3 16.8-24.6 33.7-34.5 51.8c-5.9 10.8-9.6 22.5-11.8 34.5H226.4c2.6-18.7 7.9-38.6 18.3-57.5c11.5-20.9 26.9-42.1 39.8-59.8l0 0 0 0 0 0c4.7-6.4 9-12.4 12.7-17.7zM192 128c-26.5 0-48 21.5-48 48c0 8.8-7.2 16-16 16s-16-7.2-16-16c0-44.2 35.8-80 80-80c8.8 0 16 7.2 16 16s-7.2 16-16 16zm0 384c-44.2 0-80-35.8-80-80V416H272v16c0 44.2-35.8 80-80 80z"/>
    </symbol>
    <symbol id="chart-line" viewBox="0 0 512 512">
      <path fill="currentColor" d="M64 64c0-17.7-14.3-32-32-32S0 46.3 0 64V400c0 44.2 35.8 80 80 80H480c17.7 0 32-14.3 32-32s-14.3-32-32-32H80c-8.8 0-16-7.2-16-16V64zm406.6 86.6c12.5-12.5 12.5-32.8 0-45.3s-32.8-12.5-45.3 0L320 210.7l-57.4-57.4c-12.5-12.5-32.8-12.5-45.3 0l-112 112c-12.5 12.5-12.5 32.8 0 45.3s32.8 12.5 45.3 0L240 221.3l57.4 57.4c12.5 12.5 32.8 12.5 45.3 0l128-128z"/>
    </symbol>
    <symbol id="eye" viewBox="0 0 576 512">
      <path fill="currentColor" d="M288 80c-65.2 0-118.8 29.6-159.9 67.7C89.6 183.5 63 226 49.4 256c13.6 30 40.2 72.5 78.6 108.3C169.2 402.4 222.8 432 288 432s118.8-29.6 159.9-67.7C486.4 328.5 513 286 526.6 256c-13.6-30-40.2-72.5-78.6-108.3C406.8 109.6 353.2 80 288 80zM95.4 112.6C142.5 68.8 207.2 32 288 32s145.5 36.8 192.6 80.6c46.8 43.5 78.1 95.4 93 131.1c3.3 7.9 3.3 16.7 0 24.6c-14.9 35.7-46.2 87.7-93 131.1C433.5 443.2 368.8 480 288 480s-145.5-36.8-192.6-80.6C48.6 356 17.3 304 2.5 268.3c-3.3-7.9-3.3-16.7 0-24.6C17.3 208 48.6 156 95.4 112.6zM288 336c44.2 0 80-35.8 80-80s-35.8-80-80-80c-.7 0-1.3 0-2 0c1.3 5.1 2 10.5 2 16c0 35.3-28.7 64-64 64c-5.5 0-10.9-.7-16-2c0 .7 0 1.3 0 2c0 44.2 35.8 80 80 80zm0-208a128 128 0 1 1 0 256 128 128 0 1 1 0-256z"/>
    </symbol>
    <symbol id="eye-off" viewBox="0 0 576 512">
      <path fill="currentColor" d="M38.8 5.1C28.4-3.1 13.3-1.2 5.1 9.2S-1.2 34.7 9.2 42.9l592 464c10.4 8.2 25.5 6.3 33.7-4.1s6.3-25.5-4.1-33.7L525.6 386.7c39.6-40.6 66.4-86.1 79.9-118.4c3.3-7.9 3.3-16.7 0-24.6c-14.9-35.7-46.2-87.7-93-131.1C465.5 68.8 400.8 32 320 32c-68.2 0-125 26.3-169.3 60.8L38.8 5.1zM223.1 149.5C248.6 126.2 282.7 112 320 112c79.5 0 144 64.5 144 144c0 24.9-6.3 48.3-17.4 68.7L408 294.5c8.4-19.3 10.6-41.4 4.8-63.3c-11.1-41.5-47.8-69.4-88.6-71.1c-5.8-.2-9.2 6.1-7.4 11.7c2.1 6.4 3.3 13.2 3.3 20.3c0 10.2-2.4 19.8-6.6 28.3l-90.3-70.8zM373 389.9c-16.4 6.5-34.3 10.1-53 10.1c-79.5 0-144-64.5-144-144c0-6.9 .5-13.6 1.4-20.2L83.1 161.5C60.3 191.2 44 220.8 34.5 243.7c-3.3 7.9-3.3 16.7 0 24.6c14.9 35.7 46.2 87.7 93 131.1C174.5 443.2 239.2 480 320 480c47.8 0 89.9-12.9 126.2-32.5L373 389.9z"/>
    </symbol>
  </defs>
</svg>