<svg xmlns="http://www.w3.org/2000/svg" xmlns:xlink="http://www.w3.org/1999/xlink">
  <defs>
    <symbol viewBox="0 0 576 512" id="participant">
      <path
        d="M224 256A128 128 0 1 0 224 0a128 128 0 1 0 0 256zm-45.7 48C79.8 304 0 383.8 0 482.3C0 498.7 13.3 512 29.7 512H418.3c16.4 0 29.7-13.3 29.7-29.7C448 383.8 368.2 304 269.7 304H178.3z" />
    </symbol>
    <symbol viewBox="0 0 448 512" id="plus">
      <path d="M256 80c0-17.7-14.3-32-32-32s-32 14.3-32 32V224H48c-17.7 0-32 14.3-32 32s14.3 32 32 32H192V432c0 17.7 14.3 32 32 32s32-14.3 32-32V288H400c17.7 0 32-14.3 32-32s-14.3-32-32-32H256V80z"/>
    </symbol>
    <symbol viewBox="0 0 384 512" id="cross">
      <path d="M342.6 150.6c12.5-12.5 12.5-32.8 0-45.3s-32.8-12.5-45.3 0L192 210.7 86.6 105.4c-12.5-12.5-32.8-12.5-45.3 0s-12.5 32.8 0 45.3L146.7 256 41.4 361.4c-12.5 12.5-12.5 32.8 0 45.3s32.8 12.5 45.3 0L192 301.3 297.4 406.6c12.5 12.5 32.8 12.5 45.3 0s12.5-32.8 0-45.3L237.3 256 342.6 150.6z"/>
    </symbol>
    <symbol id="more">
      <path d="M14.5 31.91225C12.479075 31.91225 10.829675 33.50575 10.829675 35.456C10.829675 37.4065 12.479075 39 14.5 39C16.52095 39 18.170325 37.4065 18.170325 35.456C18.170325 33.5145 16.52095 31.91225 14.5 31.91225ZM3.6703 0C1.649375 0 0 1.59343 0 3.543875C0 5.4943 1.649375 7.08775 3.6703 7.08775C5.69125 7.08775 7.340625 5.4943 7.340625 3.543875C7.340625 1.59343 5.69125 0 3.6703 0ZM3.6703 10.640325C1.649375 10.640325 0 12.2338 0 14.184175C0 16.134675 1.649375 17.72805 3.6703 17.72805C5.69125 17.72805 7.340625 16.134675 7.340625 14.184175C7.340625 12.2338 5.69125 10.640325 3.6703 10.640325ZM3.6703 21.2806C1.649375 21.2806 0 22.8741 0 24.824475C0 26.775 1.649375 28.36825 3.6703 28.36825C5.69125 28.36825 7.340625 26.775 7.340625 24.824475C7.340625 22.8741 5.69125 21.2806 3.6703 21.2806ZM25.32975 7.09645C27.35075 7.09645 29 5.503 29 3.552575C29 1.602145 27.35075 0 25.32975 0C23.30875 0 21.659375 1.59343 21.659375 3.543875C21.659375 5.4943 23.30875 7.09645 25.32975 7.09645ZM14.5 21.2806C12.479075 21.2806 10.829675 22.8741 10.829675 24.824475C10.829675 26.775 12.479075 28.36825 14.5 28.36825C16.52095 28.36825 18.170325 26.775 18.170325 24.824475C18.170325 22.8741 16.52095 21.2806 14.5 21.2806ZM25.32975 21.2806C23.30875 21.2806 21.659375 22.8741 21.659375 24.824475C21.659375 26.775 23.30875 28.36825 25.32975 28.36825C27.35075 28.36825 29 26.775 29 24.824475C29 22.8741 27.35075 21.2806 25.32975 21.2806ZM25.32975 10.640325C23.30875 10.640325 21.659375 12.2338 21.659375 14.184175C21.659375 16.134675 23.30875 17.72805 25.32975 17.72805C27.35075 17.72805 29 16.134675 29 14.184175C29 12.2338 27.35075 10.640325 25.32975 10.640325ZM14.5 10.640325C12.479075 10.640325 10.829675 12.2338 10.829675 14.184175C10.829675 16.134675 12.479075 17.72805 14.5 17.72805C16.52095 17.72805 18.170325 16.134675 18.170325 14.184175C18.170325 12.2338 16.52095 10.640325 14.5 10.640325ZM14.5 0C12.479075 0 10.829675 1.59343 10.829675 3.543875C10.829675 5.4943 12.479075 7.08775 14.5 7.08775C16.52095 7.08775 18.170325 5.4943 18.170325 3.543875C18.170325 1.59343 16.52095 0 14.5 0Z" fill="white"></path>
    </symbol>
    <symbol id="star" viewBox="0 0 576 512">
      <path fill="currentColor" d="M316.9 18C311.6 7 300.4 0 288.1 0s-23.4 7-28.8 18L195 150.3 51.4 171.5c-12 1.8-22 10.2-25.7 21.7s-.7 24.2 7.9 32.7L137.8 329 113.2 474.7c-2 12 3 24.2 12.9 31.3s23 8 33.8 2.3l128.3-68.5 128.3 68.5c10.8 5.7 23.9 4.9 33.8-2.3s14.9-19.3 12.9-31.3L438.5 329 542.7 225.9c8.6-8.5 11.7-21.2 7.9-32.7s-13.7-19.9-25.7-21.7L381.2 150.3 316.9 18z"/>
    </symbol>
  </defs>
</svg>