<svg xmlns="http://www.w3.org/2000/svg" xmlns:xlink="http://www.w3.org/1999/xlink">
  <defs>
    <symbol viewBox="0 0 16 18" id="calendar">
      <svg xmlns="http://www.w3.org/2000/svg" fill="none">
        <path fill-rule="evenodd" clip-rule="evenodd"
          d="M0.201904 6.92239C0.201904 6.59102 0.470533 6.32239 0.801904 6.32239H15.2052C15.5365 6.32239 15.8052 6.59102 15.8052 6.92239C15.8052 7.25376 15.5365 7.52239 15.2052 7.52239H0.801904C0.470533 7.52239 0.201904 7.25376 0.201904 6.92239Z"
          fill="currentColor" />
        <path fill-rule="evenodd" clip-rule="evenodd"
          d="M10.9893 10.0473C10.9893 9.71589 11.2579 9.44727 11.5893 9.44727H11.5967C11.9281 9.44727 12.1967 9.71589 12.1967 10.0473C12.1967 10.3786 11.9281 10.6473 11.5967 10.6473H11.5893C11.2579 10.6473 10.9893 10.3786 10.9893 10.0473Z"
          fill="currentColor" />
        <path fill-rule="evenodd" clip-rule="evenodd"
          d="M7.40381 10.0473C7.40381 9.71589 7.67244 9.44727 8.00381 9.44727H8.01129C8.34267 9.44727 8.61129 9.71589 8.61129 10.0473C8.61129 10.3786 8.34267 10.6473 8.01129 10.6473H8.00381C7.67244 10.6473 7.40381 10.3786 7.40381 10.0473Z"
          fill="currentColor" />
        <path fill-rule="evenodd" clip-rule="evenodd"
          d="M3.80957 10.0473C3.80957 9.71589 4.0782 9.44727 4.40957 9.44727H4.41706C4.74843 9.44727 5.01706 9.71589 5.01706 10.0473C5.01706 10.3786 4.74843 10.6473 4.41706 10.6473H4.40957C4.0782 10.6473 3.80957 10.3786 3.80957 10.0473Z"
          fill="currentColor" />
        <path fill-rule="evenodd" clip-rule="evenodd"
          d="M10.9893 13.1568C10.9893 12.8254 11.2579 12.5568 11.5893 12.5568H11.5967C11.9281 12.5568 12.1967 12.8254 12.1967 13.1568C12.1967 13.4881 11.9281 13.7568 11.5967 13.7568H11.5893C11.2579 13.7568 10.9893 13.4881 10.9893 13.1568Z"
          fill="currentColor" />
        <path fill-rule="evenodd" clip-rule="evenodd"
          d="M7.40381 13.1568C7.40381 12.8254 7.67244 12.5568 8.00381 12.5568H8.01129C8.34267 12.5568 8.61129 12.8254 8.61129 13.1568C8.61129 13.4881 8.34267 13.7568 8.01129 13.7568H8.00381C7.67244 13.7568 7.40381 13.4881 7.40381 13.1568Z"
          fill="currentColor" />
        <path fill-rule="evenodd" clip-rule="evenodd"
          d="M3.80957 13.1568C3.80957 12.8254 4.0782 12.5568 4.40957 12.5568H4.41706C4.74843 12.5568 5.01706 12.8254 5.01706 13.1568C5.01706 13.4881 4.74843 13.7568 4.41706 13.7568H4.40957C4.0782 13.7568 3.80957 13.4881 3.80957 13.1568Z"
          fill="currentColor" />
        <path fill-rule="evenodd" clip-rule="evenodd"
          d="M11.2687 0.400024C11.6001 0.400024 11.8687 0.668654 11.8687 1.00002V3.63266C11.8687 3.96403 11.6001 4.23266 11.2687 4.23266C10.9373 4.23266 10.6687 3.96403 10.6687 3.63266V1.00002C10.6687 0.668654 10.9373 0.400024 11.2687 0.400024Z"
          fill="currentColor" />
        <path fill-rule="evenodd" clip-rule="evenodd"
          d="M4.74038 0.400024C5.07175 0.400024 5.34038 0.668654 5.34038 1.00002V3.63266C5.34038 3.96403 5.07175 4.23266 4.74038 4.23266C4.40901 4.23266 4.14038 3.96403 4.14038 3.63266V1.00002C4.14038 0.668654 4.40901 0.400024 4.74038 0.400024Z"
          fill="currentColor" />
        <path fill-rule="evenodd" clip-rule="evenodd"
          d="M1.354 2.7816C2.16217 2.02103 3.28971 1.66345 4.58279 1.66345H11.4251C12.7214 1.66345 13.8496 2.02076 14.6564 2.78218C15.4685 3.54864 15.8769 4.65082 15.8729 5.97882V13.2782C15.8729 14.6061 15.4625 15.7094 14.6502 16.4773C13.8429 17.2404 12.7149 17.6002 11.4176 17.6002H4.58279C3.28616 17.6002 2.15731 17.233 1.34979 16.4582C0.538461 15.6797 0.127441 14.5626 0.127441 13.2176V5.97789C0.127441 4.64901 0.540347 3.54733 1.354 2.7816ZM2.1764 3.65548C1.65566 4.14555 1.32744 4.90109 1.32744 5.97789V13.2176C1.32744 14.3163 1.65755 15.0904 2.18061 15.5923C2.7075 16.0978 3.50632 16.4002 4.58279 16.4002H11.4176C12.5009 16.4002 13.3006 16.1018 13.8258 15.6053C14.346 15.1136 14.6729 14.3559 14.6729 13.2782V5.97789L14.6729 5.97603C14.6763 4.89875 14.351 4.14405 13.8327 3.6549C13.3089 3.16052 12.5094 2.86345 11.4251 2.86345H4.58279C3.50276 2.86345 2.70263 3.16025 2.1764 3.65548Z"
          fill="currentColor" />
      </svg>

    </symbol>
  </defs>
</svg>