<svg xmlns="http://www.w3.org/2000/svg" xmlns:xlink="http://www.w3.org/1999/xlink">
  <defs>
     <symbol viewBox="0 0 33 34.79345703125" id="red-arrow">
      <path d="M0.443635 9.068225H13.2662C18.039975 8.814375 17.599975 9.278275 14.748075 12.8411L3.22215 24.992025C4.4 26.443 5.72 27.83475 5.72 27.83475C5.72 27.83475 5.72 27.83475 8.8 31.546L20.824875 19.2493C24.403675 15.773 24.403675 15.773 24.403675 20.811525V34.7935H33C33 34.7935 33 18.12885 33 9.06445C33 0.00004778125 33 0.0002556525 24.403675 0.000078662C15.807325 -0.0000983275 0 0.000078662 0 0.000078662C0 6.0309 0 4.061125 0 9.068225H0.443635Z" fill="#D70926"></path>
    </symbol>
    <symbol viewBox="0 0 576 512" id="trophy">
      <path fill="currentColor" d="M400 0H176c-26.5 0-48.1 21.8-47.1 48.2c.2 5.3 .4 10.6 .7 15.8H24C10.7 64 0 74.7 0 88c0 92.6 33.5 157 78.5 200.7c44.3 43.1 98.3 64.8 138.1 75.8c23.4 6.5 39.4 26 39.4 45.6c0 20.9-17 37.9-37.9 37.9H192c-17.7 0-32 14.3-32 32s14.3 32 32 32H384c17.7 0 32-14.3 32-32s-14.3-32-32-32H357.9C337 448 320 431 320 410.1c0-19.6 15.9-39.2 39.4-45.6c39.9-11 93.9-32.7 138.2-75.8C542.5 245 576 180.6 576 88c0-13.3-10.7-24-24-24H446.4c.3-5.2 .5-10.4 .7-15.8C448.1 21.8 426.5 0 400 0zM48.9 112h84.4c9.1 90.1 29.2 150.3 51.9 190.6c-24.9-11-50.8-26.5-73.2-48.3c-32-31.1-58-76-63-142.3zM464.1 254.3c-22.4 21.8-48.3 37.3-73.2 48.3c22.7-40.3 42.8-100.5 51.9-190.6h84.4c-5.1 66.3-31.1 111.2-63 142.3z"/>
    </symbol>
  </defs>
</svg>